<?xml version="1.0" encoding="UTF-8" standalone="no"?>
<!DOCTYPE svg PUBLIC "-//W3C//DTD SVG 1.1//EN" "http://www.w3.org/Graphics/SVG/1.1/DTD/svg11.dtd">
<svg width="100%" height="100%" viewBox="0 0 615 237" version="1.1" xmlns="http://www.w3.org/2000/svg" xmlns:xlink="http://www.w3.org/1999/xlink" xml:space="preserve" xmlns:serif="http://www.serif.com/" style="fill-rule:evenodd;clip-rule:evenodd;stroke-linejoin:round;stroke-miterlimit:2;">
    <g transform="matrix(1.31679,0,0,1.31679,-106.461,-134.696)">
        <g transform="matrix(50,0,0,50,105.469,198.111)">
            <path d="M0.294,0.012C0.237,0.012 0.187,0.003 0.145,-0.014C0.102,-0.031 0.07,-0.055 0.049,-0.085L0.132,-0.162C0.152,-0.14 0.175,-0.123 0.203,-0.111C0.23,-0.098 0.26,-0.092 0.295,-0.092C0.324,-0.092 0.347,-0.096 0.364,-0.106C0.381,-0.115 0.389,-0.128 0.389,-0.147C0.389,-0.162 0.383,-0.172 0.372,-0.178C0.361,-0.183 0.345,-0.188 0.325,-0.191L0.242,-0.204C0.219,-0.207 0.197,-0.213 0.177,-0.22C0.157,-0.227 0.14,-0.236 0.125,-0.248C0.11,-0.26 0.099,-0.275 0.09,-0.292C0.081,-0.309 0.077,-0.33 0.077,-0.355C0.077,-0.409 0.098,-0.451 0.139,-0.482C0.18,-0.513 0.238,-0.528 0.313,-0.528C0.364,-0.528 0.407,-0.521 0.443,-0.508C0.478,-0.494 0.507,-0.474 0.528,-0.449L0.454,-0.365C0.439,-0.382 0.419,-0.396 0.395,-0.407C0.371,-0.418 0.342,-0.424 0.308,-0.424C0.251,-0.424 0.222,-0.407 0.222,-0.372C0.222,-0.357 0.228,-0.346 0.239,-0.341C0.25,-0.335 0.266,-0.33 0.286,-0.327L0.368,-0.314C0.391,-0.311 0.413,-0.306 0.433,-0.299C0.453,-0.292 0.47,-0.282 0.486,-0.27C0.501,-0.258 0.512,-0.243 0.521,-0.226C0.53,-0.209 0.534,-0.188 0.534,-0.163C0.534,-0.109 0.513,-0.066 0.472,-0.035C0.43,-0.004 0.371,0.012 0.294,0.012Z" style="fill:rgb(35,31,32);fill-rule:nonzero;"/>
        </g>
        <g transform="matrix(50,0,0,50,135.469,198.111)">
            <path d="M0.34,-0C0.287,-0 0.247,-0.014 0.221,-0.042C0.195,-0.07 0.182,-0.106 0.182,-0.149L0.182,-0.401L0.042,-0.401L0.042,-0.516L0.133,-0.516C0.155,-0.516 0.171,-0.52 0.18,-0.529C0.189,-0.538 0.194,-0.554 0.194,-0.577L0.194,-0.698L0.33,-0.698L0.33,-0.516L0.531,-0.516L0.531,-0.401L0.33,-0.401L0.33,-0.115L0.531,-0.115L0.531,-0L0.34,-0Z" style="fill:rgb(35,31,32);fill-rule:nonzero;"/>
        </g>
        <g transform="matrix(50,0,0,50,165.469,198.111)">
            <path d="M0.487,-0C0.456,-0 0.432,-0.008 0.413,-0.024C0.394,-0.039 0.383,-0.062 0.38,-0.091L0.375,-0.091C0.366,-0.057 0.347,-0.031 0.32,-0.014C0.292,0.003 0.258,0.012 0.218,0.012C0.168,0.012 0.128,-0.002 0.098,-0.029C0.067,-0.056 0.052,-0.093 0.052,-0.142C0.052,-0.196 0.072,-0.236 0.111,-0.262C0.15,-0.288 0.208,-0.301 0.284,-0.301L0.367,-0.301L0.367,-0.327C0.367,-0.358 0.36,-0.381 0.346,-0.397C0.331,-0.412 0.307,-0.42 0.273,-0.42C0.242,-0.42 0.216,-0.414 0.197,-0.402C0.178,-0.39 0.161,-0.374 0.147,-0.355L0.066,-0.427C0.083,-0.456 0.111,-0.481 0.148,-0.5C0.185,-0.519 0.232,-0.528 0.29,-0.528C0.361,-0.528 0.416,-0.512 0.456,-0.48C0.495,-0.447 0.515,-0.398 0.515,-0.333L0.515,-0.107L0.572,-0.107L0.572,-0L0.487,-0ZM0.274,-0.085C0.3,-0.085 0.322,-0.091 0.34,-0.104C0.358,-0.117 0.367,-0.135 0.367,-0.159L0.367,-0.221L0.288,-0.221C0.227,-0.221 0.197,-0.201 0.197,-0.16L0.197,-0.14C0.197,-0.122 0.204,-0.108 0.218,-0.099C0.232,-0.09 0.251,-0.085 0.274,-0.085Z" style="fill:rgb(35,31,32);fill-rule:nonzero;"/>
        </g>
        <g transform="matrix(50,0,0,50,195.469,198.111)">
            <path d="M0.321,0.012C0.28,0.012 0.244,0.006 0.212,-0.007C0.179,-0.019 0.152,-0.037 0.13,-0.06C0.107,-0.083 0.09,-0.112 0.078,-0.145C0.066,-0.178 0.06,-0.216 0.06,-0.258C0.06,-0.3 0.066,-0.338 0.078,-0.371C0.09,-0.404 0.107,-0.433 0.13,-0.456C0.152,-0.479 0.179,-0.497 0.212,-0.51C0.244,-0.522 0.28,-0.528 0.32,-0.528C0.377,-0.528 0.422,-0.517 0.457,-0.494C0.491,-0.47 0.517,-0.44 0.535,-0.402L0.421,-0.34C0.412,-0.36 0.4,-0.377 0.385,-0.39C0.37,-0.403 0.348,-0.41 0.32,-0.41C0.286,-0.41 0.26,-0.4 0.242,-0.381C0.223,-0.361 0.214,-0.334 0.214,-0.3L0.214,-0.216C0.214,-0.182 0.223,-0.155 0.242,-0.136C0.26,-0.116 0.287,-0.106 0.322,-0.106C0.351,-0.106 0.373,-0.113 0.39,-0.126C0.406,-0.139 0.42,-0.157 0.431,-0.178L0.543,-0.114C0.524,-0.076 0.497,-0.046 0.462,-0.023C0.426,0.001 0.379,0.012 0.321,0.012Z" style="fill:rgb(35,31,32);fill-rule:nonzero;"/>
        </g>
        <g transform="matrix(50,0,0,50,225.469,198.111)">
            <path d="M0.065,-0.74L0.213,-0.74L0.213,-0.32L0.22,-0.32L0.289,-0.401L0.397,-0.516L0.567,-0.516L0.367,-0.312L0.588,-0L0.412,-0L0.262,-0.228L0.213,-0.179L0.213,-0L0.065,-0L0.065,-0.74Z" style="fill:rgb(35,31,32);fill-rule:nonzero;"/>
        </g>
        <g transform="matrix(50,0,0,50,255.469,198.111)">
            <path d="M0.074,-0.115L0.193,-0.115L0.193,-0.401L0.074,-0.401L0.074,-0.516L0.341,-0.516L0.341,-0.37L0.348,-0.37C0.353,-0.389 0.359,-0.407 0.368,-0.425C0.376,-0.442 0.387,-0.458 0.4,-0.472C0.413,-0.485 0.428,-0.496 0.447,-0.504C0.466,-0.512 0.488,-0.516 0.513,-0.516L0.562,-0.516L0.562,-0.38L0.452,-0.38C0.415,-0.38 0.388,-0.369 0.369,-0.348C0.35,-0.326 0.341,-0.299 0.341,-0.268L0.341,-0.115L0.511,-0.115L0.511,-0L0.074,-0L0.074,-0.115Z" style="fill:rgb(35,31,32);fill-rule:nonzero;"/>
        </g>
        <g transform="matrix(50,0,0,50,285.469,198.111)">
            <path d="M0.332,-0.582C0.299,-0.582 0.276,-0.589 0.263,-0.603C0.249,-0.616 0.243,-0.633 0.243,-0.652L0.243,-0.681C0.243,-0.701 0.249,-0.718 0.263,-0.731C0.276,-0.744 0.299,-0.751 0.332,-0.751C0.365,-0.751 0.389,-0.744 0.402,-0.731C0.415,-0.718 0.421,-0.701 0.421,-0.681L0.421,-0.652C0.421,-0.633 0.415,-0.616 0.402,-0.603C0.389,-0.589 0.365,-0.582 0.332,-0.582ZM0.094,-0.115L0.258,-0.115L0.258,-0.401L0.094,-0.401L0.094,-0.516L0.406,-0.516L0.406,-0.115L0.558,-0.115L0.558,-0L0.094,-0L0.094,-0.115Z" style="fill:rgb(35,31,32);fill-rule:nonzero;"/>
        </g>
        <g transform="matrix(50,0,0,50,315.469,198.111)">
            <path d="M0.059,-0.516L0.207,-0.516L0.207,-0.422L0.214,-0.422C0.227,-0.453 0.245,-0.478 0.269,-0.498C0.293,-0.518 0.326,-0.528 0.367,-0.528C0.396,-0.528 0.422,-0.523 0.446,-0.512C0.469,-0.501 0.49,-0.485 0.507,-0.463C0.524,-0.441 0.537,-0.413 0.547,-0.379C0.556,-0.345 0.561,-0.305 0.561,-0.258C0.561,-0.211 0.556,-0.171 0.547,-0.137C0.537,-0.103 0.524,-0.075 0.507,-0.053C0.49,-0.031 0.469,-0.015 0.446,-0.004C0.422,0.007 0.396,0.012 0.367,0.012C0.326,0.012 0.293,0.002 0.269,-0.018C0.245,-0.037 0.227,-0.063 0.214,-0.094L0.207,-0.094L0.207,0.2L0.059,0.2L0.059,-0.516ZM0.303,-0.103C0.336,-0.103 0.362,-0.113 0.38,-0.134C0.398,-0.154 0.407,-0.182 0.407,-0.218L0.407,-0.298C0.407,-0.334 0.398,-0.362 0.38,-0.383C0.362,-0.403 0.336,-0.413 0.303,-0.413C0.277,-0.413 0.255,-0.407 0.236,-0.394C0.217,-0.381 0.207,-0.361 0.207,-0.334L0.207,-0.182C0.207,-0.155 0.217,-0.135 0.236,-0.122C0.255,-0.109 0.277,-0.103 0.303,-0.103Z" style="fill:rgb(35,31,32);fill-rule:nonzero;"/>
        </g>
        <g transform="matrix(50,0,0,50,345.469,198.111)">
            <path d="M0.059,-0.516L0.207,-0.516L0.207,-0.422L0.214,-0.422C0.227,-0.453 0.245,-0.478 0.269,-0.498C0.293,-0.518 0.326,-0.528 0.367,-0.528C0.396,-0.528 0.422,-0.523 0.446,-0.512C0.469,-0.501 0.49,-0.485 0.507,-0.463C0.524,-0.441 0.537,-0.413 0.547,-0.379C0.556,-0.345 0.561,-0.305 0.561,-0.258C0.561,-0.211 0.556,-0.171 0.547,-0.137C0.537,-0.103 0.524,-0.075 0.507,-0.053C0.49,-0.031 0.469,-0.015 0.446,-0.004C0.422,0.007 0.396,0.012 0.367,0.012C0.326,0.012 0.293,0.002 0.269,-0.018C0.245,-0.037 0.227,-0.063 0.214,-0.094L0.207,-0.094L0.207,0.2L0.059,0.2L0.059,-0.516ZM0.303,-0.103C0.336,-0.103 0.362,-0.113 0.38,-0.134C0.398,-0.154 0.407,-0.182 0.407,-0.218L0.407,-0.298C0.407,-0.334 0.398,-0.362 0.38,-0.383C0.362,-0.403 0.336,-0.413 0.303,-0.413C0.277,-0.413 0.255,-0.407 0.236,-0.394C0.217,-0.381 0.207,-0.361 0.207,-0.334L0.207,-0.182C0.207,-0.155 0.217,-0.135 0.236,-0.122C0.255,-0.109 0.277,-0.103 0.303,-0.103Z" style="fill:rgb(35,31,32);fill-rule:nonzero;"/>
        </g>
        <g transform="matrix(50,0,0,50,375.469,198.111)">
            <path d="M0.314,0.012C0.227,0.012 0.162,-0.012 0.117,-0.06C0.072,-0.108 0.05,-0.173 0.05,-0.256C0.05,-0.298 0.056,-0.336 0.068,-0.37C0.079,-0.403 0.096,-0.432 0.118,-0.456C0.139,-0.479 0.166,-0.497 0.197,-0.51C0.228,-0.522 0.262,-0.528 0.301,-0.528C0.34,-0.528 0.374,-0.522 0.405,-0.51C0.436,-0.497 0.462,-0.48 0.483,-0.457C0.504,-0.434 0.521,-0.407 0.533,-0.375C0.544,-0.342 0.55,-0.306 0.55,-0.266L0.55,-0.222L0.197,-0.222L0.197,-0.213C0.197,-0.18 0.207,-0.153 0.228,-0.133C0.249,-0.112 0.279,-0.102 0.319,-0.102C0.35,-0.102 0.376,-0.108 0.398,-0.12C0.42,-0.131 0.439,-0.147 0.455,-0.166L0.535,-0.079C0.515,-0.054 0.487,-0.033 0.451,-0.015C0.415,0.003 0.369,0.012 0.314,0.012ZM0.302,-0.422C0.27,-0.422 0.245,-0.412 0.226,-0.393C0.207,-0.373 0.197,-0.346 0.197,-0.313L0.197,-0.305L0.405,-0.305L0.405,-0.313C0.405,-0.347 0.396,-0.374 0.378,-0.393C0.359,-0.412 0.334,-0.422 0.302,-0.422Z" style="fill:rgb(35,31,32);fill-rule:nonzero;"/>
        </g>
        <g transform="matrix(50,0,0,50,405.469,198.111)">
            <path d="M0.074,-0.115L0.193,-0.115L0.193,-0.401L0.074,-0.401L0.074,-0.516L0.341,-0.516L0.341,-0.37L0.348,-0.37C0.353,-0.389 0.359,-0.407 0.368,-0.425C0.376,-0.442 0.387,-0.458 0.4,-0.472C0.413,-0.485 0.428,-0.496 0.447,-0.504C0.466,-0.512 0.488,-0.516 0.513,-0.516L0.562,-0.516L0.562,-0.38L0.452,-0.38C0.415,-0.38 0.388,-0.369 0.369,-0.348C0.35,-0.326 0.341,-0.299 0.341,-0.268L0.341,-0.115L0.511,-0.115L0.511,-0L0.074,-0L0.074,-0.115Z" style="fill:rgb(35,31,32);fill-rule:nonzero;"/>
        </g>
        <g transform="matrix(50,0,0,50,465.469,198.111)">
            <path d="M0.077,-0.068L0.228,-0.068L0.228,-0.448L0.077,-0.448L0.077,-0.516L0.308,-0.516L0.308,-0.386L0.313,-0.386C0.324,-0.427 0.344,-0.458 0.374,-0.482C0.403,-0.505 0.441,-0.516 0.487,-0.516L0.559,-0.516L0.559,-0.436L0.462,-0.436C0.416,-0.436 0.379,-0.423 0.351,-0.396C0.322,-0.369 0.308,-0.334 0.308,-0.291L0.308,-0.068L0.508,-0.068L0.508,-0L0.077,-0L0.077,-0.068Z" style="fill:rgb(35,31,32);fill-rule:nonzero;"/>
        </g>
        <g transform="matrix(50,0,0,50,494.969,198.111)">
            <path d="M0.061,-0L0.253,-0.262L0.066,-0.516L0.162,-0.516L0.24,-0.407L0.302,-0.321L0.306,-0.321L0.366,-0.407L0.443,-0.516L0.535,-0.516L0.346,-0.263L0.54,-0L0.444,-0L0.357,-0.121L0.298,-0.203L0.294,-0.203L0.237,-0.121L0.153,-0L0.061,-0Z" style="fill:rgb(35,31,32);fill-rule:nonzero;"/>
        </g>
        <g transform="matrix(25,0,0,25,105.469,223.111)">
            <path d="M0.212,-0L0.027,-0.516L0.183,-0.516L0.25,-0.295L0.299,-0.123L0.307,-0.123L0.356,-0.295L0.423,-0.516L0.573,-0.516L0.388,-0L0.212,-0Z" style="fill:rgb(35,31,32);fill-rule:nonzero;"/>
        </g>
        <g transform="matrix(25,0,0,25,120.469,223.111)">
            <path d="M0.3,0.012C0.207,0.012 0.138,-0.02 0.094,-0.083C0.049,-0.146 0.027,-0.235 0.027,-0.349C0.027,-0.463 0.049,-0.552 0.094,-0.615C0.138,-0.678 0.207,-0.71 0.3,-0.71C0.393,-0.71 0.462,-0.678 0.507,-0.615C0.551,-0.552 0.573,-0.463 0.573,-0.349C0.573,-0.235 0.551,-0.146 0.507,-0.083C0.462,-0.02 0.393,0.012 0.3,0.012ZM0.3,-0.106C0.345,-0.106 0.376,-0.122 0.394,-0.153C0.411,-0.184 0.42,-0.228 0.42,-0.284L0.42,-0.414C0.42,-0.47 0.411,-0.514 0.394,-0.545C0.376,-0.576 0.345,-0.592 0.3,-0.592C0.255,-0.592 0.224,-0.576 0.207,-0.545C0.189,-0.514 0.18,-0.47 0.18,-0.414L0.18,-0.284C0.18,-0.228 0.189,-0.184 0.207,-0.153C0.224,-0.122 0.255,-0.106 0.3,-0.106ZM0.3,-0.29C0.277,-0.29 0.261,-0.295 0.252,-0.304C0.243,-0.313 0.238,-0.325 0.238,-0.338L0.238,-0.36C0.238,-0.373 0.243,-0.385 0.252,-0.394C0.261,-0.403 0.277,-0.408 0.3,-0.408C0.323,-0.408 0.339,-0.403 0.349,-0.394C0.358,-0.385 0.362,-0.373 0.362,-0.36L0.362,-0.338C0.362,-0.325 0.358,-0.313 0.349,-0.304C0.339,-0.295 0.323,-0.29 0.3,-0.29Z" style="fill:rgb(35,31,32);fill-rule:nonzero;"/>
        </g>
        <g transform="matrix(25,0,0,25,135.469,223.111)">
            <path d="M0.3,0.012C0.263,0.012 0.236,0.004 0.22,-0.013C0.203,-0.029 0.195,-0.048 0.195,-0.071L0.195,-0.106C0.195,-0.129 0.203,-0.148 0.22,-0.165C0.236,-0.181 0.263,-0.189 0.3,-0.189C0.337,-0.189 0.364,-0.181 0.381,-0.165C0.397,-0.148 0.405,-0.129 0.405,-0.106L0.405,-0.071C0.405,-0.048 0.397,-0.029 0.381,-0.013C0.364,0.004 0.337,0.012 0.3,0.012Z" style="fill:rgb(35,31,32);fill-rule:nonzero;"/>
        </g>
        <g transform="matrix(25,0,0,25,150.469,223.111)">
            <path d="M0.3,0.012C0.207,0.012 0.138,-0.02 0.094,-0.083C0.049,-0.146 0.027,-0.235 0.027,-0.349C0.027,-0.463 0.049,-0.552 0.094,-0.615C0.138,-0.678 0.207,-0.71 0.3,-0.71C0.393,-0.71 0.462,-0.678 0.507,-0.615C0.551,-0.552 0.573,-0.463 0.573,-0.349C0.573,-0.235 0.551,-0.146 0.507,-0.083C0.462,-0.02 0.393,0.012 0.3,0.012ZM0.3,-0.106C0.345,-0.106 0.376,-0.122 0.394,-0.153C0.411,-0.184 0.42,-0.228 0.42,-0.284L0.42,-0.414C0.42,-0.47 0.411,-0.514 0.394,-0.545C0.376,-0.576 0.345,-0.592 0.3,-0.592C0.255,-0.592 0.224,-0.576 0.207,-0.545C0.189,-0.514 0.18,-0.47 0.18,-0.414L0.18,-0.284C0.18,-0.228 0.189,-0.184 0.207,-0.153C0.224,-0.122 0.255,-0.106 0.3,-0.106ZM0.3,-0.29C0.277,-0.29 0.261,-0.295 0.252,-0.304C0.243,-0.313 0.238,-0.325 0.238,-0.338L0.238,-0.36C0.238,-0.373 0.243,-0.385 0.252,-0.394C0.261,-0.403 0.277,-0.408 0.3,-0.408C0.323,-0.408 0.339,-0.403 0.349,-0.394C0.358,-0.385 0.362,-0.373 0.362,-0.36L0.362,-0.338C0.362,-0.325 0.358,-0.313 0.349,-0.304C0.339,-0.295 0.323,-0.29 0.3,-0.29Z" style="fill:rgb(35,31,32);fill-rule:nonzero;"/>
        </g>
        <g transform="matrix(25,0,0,25,165.469,223.111)">
            <path d="M0.3,0.012C0.263,0.012 0.236,0.004 0.22,-0.013C0.203,-0.029 0.195,-0.048 0.195,-0.071L0.195,-0.106C0.195,-0.129 0.203,-0.148 0.22,-0.165C0.236,-0.181 0.263,-0.189 0.3,-0.189C0.337,-0.189 0.364,-0.181 0.381,-0.165C0.397,-0.148 0.405,-0.129 0.405,-0.106L0.405,-0.071C0.405,-0.048 0.397,-0.029 0.381,-0.013C0.364,0.004 0.337,0.012 0.3,0.012Z" style="fill:rgb(35,31,32);fill-rule:nonzero;"/>
        </g>
        <g transform="matrix(25,0,0,25,180.469,223.111)">
            <path d="M0.094,-0L0.094,-0.121L0.282,-0.121L0.282,-0.589L0.273,-0.589L0.131,-0.403L0.035,-0.478L0.202,-0.698L0.432,-0.698L0.432,-0.121L0.58,-0.121L0.58,-0L0.094,-0Z" style="fill:rgb(35,31,32);fill-rule:nonzero;"/>
        </g>
    </g>
</svg>
